<svg width="127" height="40" viewBox="0 0 127 40" fill="none" xmlns="http://www.w3.org/2000/svg">
<g clip-path="url(#clip0_3041_151414)">
<path d="M58.2194 20.9355C58.6635 21.5401 58.891 22.2767 58.8653 23.0264C58.8886 23.5538 58.7759 24.0783 58.5379 24.5494C58.2998 25.0206 57.9446 25.4226 57.5062 25.7167C56.6002 26.3455 55.279 26.6599 53.5428 26.6599H46.9775C46.9358 26.6602 46.8944 26.6523 46.8558 26.6365C46.8172 26.6208 46.7821 26.5976 46.7525 26.5682C46.723 26.5388 46.6995 26.5039 46.6835 26.4654C46.6674 26.4269 46.6592 26.3857 46.6592 26.344V13.65C46.6592 13.5656 46.6927 13.4846 46.7524 13.4249C46.8121 13.3652 46.893 13.3317 46.9775 13.3317H53.1618C54.7834 13.3317 56.0287 13.6415 56.8975 14.261C57.3103 14.5387 57.6463 14.9163 57.8741 15.3586C58.102 15.8009 58.2144 16.2936 58.2009 16.7909C58.2111 17.4 58.0501 17.9997 57.7362 18.5217C57.5302 18.86 57.2622 19.1564 56.9463 19.3953C56.9016 19.4268 56.8658 19.4694 56.8425 19.519C56.8192 19.5685 56.8092 19.6232 56.8134 19.6778C56.8176 19.7324 56.8359 19.7849 56.8666 19.8303C56.8972 19.8756 56.9391 19.9123 56.9882 19.9366C57.4728 20.166 57.8951 20.5086 58.2194 20.9355ZM49.7212 15.9732V18.4776C49.7212 18.5614 49.7545 18.6418 49.8137 18.701C49.873 18.7603 49.9533 18.7935 50.0371 18.7935H52.7808C53.5428 18.7935 54.1198 18.6604 54.5116 18.394C54.7039 18.2659 54.8594 18.0898 54.9629 17.8833C55.0664 17.6767 55.1142 17.4468 55.1017 17.2161C55.1134 16.9878 55.0651 16.7604 54.9616 16.5566C54.858 16.3528 54.7029 16.1797 54.5116 16.0545C54.1198 15.7943 53.5428 15.6642 52.7808 15.6642H50.0371C49.9545 15.6642 49.8752 15.6965 49.8161 15.7543C49.7571 15.812 49.723 15.8906 49.7212 15.9732ZM55.1482 23.9302C55.3514 23.7973 55.5157 23.6129 55.6243 23.3958C55.7329 23.1786 55.7818 22.9365 55.7661 22.6942C55.7661 21.5915 54.9484 21.0401 53.3128 21.0401H50.0371C49.9954 21.0401 49.9542 21.0483 49.9157 21.0644C49.8772 21.0804 49.8423 21.1039 49.8129 21.1334C49.7835 21.163 49.7603 21.1981 49.7445 21.2367C49.7288 21.2753 49.7209 21.3167 49.7212 21.3584V24.0115C49.7199 24.0537 49.7272 24.0958 49.7425 24.1352C49.7578 24.1746 49.7809 24.2106 49.8104 24.2409C49.8398 24.2712 49.8751 24.2954 49.914 24.3118C49.953 24.3283 49.9948 24.3367 50.0371 24.3367H53.3128C54.126 24.3367 54.737 24.195 55.1482 23.9302Z" fill="#181818"/>
<path d="M61.997 13.3387H64.441C64.525 13.3393 64.6054 13.3731 64.6646 13.4327C64.7237 13.4923 64.757 13.5729 64.757 13.657V26.3324C64.7585 26.3748 64.7515 26.4172 64.7363 26.4568C64.7211 26.4965 64.6981 26.5327 64.6686 26.5633C64.6391 26.5939 64.6038 26.6182 64.5647 26.6348C64.5255 26.6514 64.4835 26.66 64.441 26.6599H61.997C61.913 26.6599 61.8324 26.6267 61.7728 26.5675C61.7131 26.5083 61.6793 26.428 61.6787 26.344V13.65C61.6811 13.567 61.7156 13.4881 61.775 13.4301C61.8344 13.372 61.914 13.3392 61.997 13.3387Z" fill="#181818"/>
<path d="M81.2216 20.3733C81.2216 24.418 78.4035 26.8783 74.698 26.8783C70.5372 26.8783 67.5519 23.8163 67.5519 20.0155C67.5469 19.1046 67.7232 18.2018 68.0707 17.3597C68.4181 16.5176 68.9297 15.753 69.5755 15.1106C70.2214 14.4682 70.9887 13.9608 71.8326 13.6178C72.6766 13.2749 73.5804 13.1034 74.4913 13.1133C76.8888 13.1133 78.9309 14.2331 80.0902 15.8593C80.1145 15.8945 80.1313 15.9343 80.1395 15.9763C80.1476 16.0182 80.147 16.0614 80.1376 16.1031C80.1282 16.1448 80.1103 16.1841 80.0849 16.2185C80.0596 16.253 80.0273 16.2817 79.9903 16.3031L77.9505 17.4647C77.8869 17.5017 77.8122 17.5147 77.7398 17.5015C77.6674 17.4883 77.602 17.4497 77.5556 17.3926C76.9562 16.626 75.8411 16.0545 74.4704 16.0545C72.2401 16.0545 70.5767 17.6993 70.5767 20.0248C70.5767 22.276 72.1634 23.9209 74.7352 23.9209C76.3916 23.9209 77.8018 23.0287 78.1341 21.8904C78.1434 21.8668 78.1469 21.8414 78.1443 21.8162C78.1418 21.791 78.1332 21.7667 78.1193 21.7456C78.1054 21.7244 78.0866 21.7068 78.0645 21.6944C78.0424 21.682 78.0177 21.6751 77.9923 21.6743H74.8955C74.8136 21.6743 74.735 21.6418 74.677 21.5838C74.6191 21.5259 74.5865 21.4473 74.5865 21.3653V19.5393C74.5865 19.4573 74.6191 19.3787 74.677 19.3208C74.735 19.2629 74.8136 19.2303 74.8955 19.2303H80.9173C80.9988 19.2309 81.0768 19.2637 81.1342 19.3216C81.1917 19.3795 81.2239 19.4577 81.2239 19.5393L81.2216 20.3733Z" fill="#181818"/>
<path d="M47.4324 35.4068C47.2141 35.3389 47.0151 35.2203 46.8516 35.0606L47.0049 34.7609C47.156 34.9057 47.3367 35.0159 47.5346 35.0839C47.7531 35.1652 47.9844 35.2069 48.2176 35.207C48.4775 35.2253 48.7366 35.162 48.9587 35.0258C49.0352 34.9748 49.098 34.9058 49.1414 34.8247C49.1847 34.7436 49.2074 34.6531 49.2073 34.5612C49.2101 34.4962 49.1996 34.4314 49.1764 34.3706C49.1533 34.3099 49.1179 34.2546 49.0725 34.208C48.9791 34.118 48.8674 34.049 48.745 34.0059C48.5673 33.9449 48.3866 33.893 48.2037 33.8503C47.9782 33.7969 47.7563 33.7293 47.5392 33.6481C47.3766 33.5841 47.2316 33.4822 47.1164 33.3508C46.9935 33.198 46.9315 33.0052 46.9422 32.8095C46.941 32.63 46.9919 32.4541 47.0885 32.303C47.1993 32.1394 47.3562 32.0125 47.5392 31.9383C47.7791 31.8394 48.0373 31.7927 48.2966 31.8012C48.5056 31.8006 48.7137 31.8295 48.9146 31.8871C49.1004 31.9353 49.277 32.0138 49.4373 32.1195L49.3072 32.4308C49.0071 32.233 48.656 32.1265 48.2966 32.1241C48.0402 32.1058 47.7848 32.1719 47.5694 32.3123C47.4926 32.3665 47.4303 32.4386 47.3877 32.5224C47.3452 32.6063 47.3238 32.6992 47.3255 32.7932C47.3225 32.8579 47.3327 32.9226 47.3555 32.9833C47.3782 33.044 47.4131 33.0995 47.4579 33.1463C47.5534 33.2394 47.6685 33.3101 47.7948 33.3531C47.9295 33.3995 48.1107 33.4507 48.3384 33.5064C48.5606 33.559 48.7794 33.6249 48.9936 33.7039C49.1566 33.7661 49.3018 33.8674 49.4164 33.9989C49.539 34.1491 49.6011 34.3397 49.5906 34.5333C49.5917 34.7133 49.5392 34.8897 49.4396 35.0397C49.3243 35.2041 49.1625 35.3303 48.975 35.4021C48.7326 35.4978 48.4734 35.5437 48.213 35.5369C47.9473 35.5379 47.6833 35.494 47.4324 35.4068Z" fill="#707070"/>
<path d="M50.8995 35.351C50.6888 35.2329 50.5145 35.0593 50.3953 34.8492C50.2749 34.6266 50.2119 34.3775 50.2119 34.1244C50.2119 33.8713 50.2749 33.6222 50.3953 33.3995C50.5138 33.1895 50.6884 33.0166 50.8995 32.9C51.1214 32.7827 51.3686 32.7213 51.6196 32.7213C51.8707 32.7213 52.1179 32.7827 52.3398 32.9C52.5507 33.0161 52.7247 33.1892 52.8417 33.3995C52.9606 33.6226 53.0229 33.8716 53.0229 34.1244C53.0229 34.3772 52.9606 34.6261 52.8417 34.8492C52.7241 35.0598 52.5504 35.2335 52.3398 35.351C52.1184 35.47 51.871 35.5323 51.6196 35.5323C51.3683 35.5323 51.1209 35.47 50.8995 35.351ZM52.147 35.0676C52.3037 34.9788 52.4312 34.8465 52.5141 34.6866C52.5997 34.5115 52.6442 34.3192 52.6442 34.1244C52.6442 33.9295 52.5997 33.7372 52.5141 33.5622C52.4312 33.4023 52.3037 33.2699 52.147 33.1812C51.9853 33.0927 51.804 33.0463 51.6196 33.0463C51.4353 33.0463 51.254 33.0927 51.0923 33.1812C50.9357 33.2708 50.8077 33.4029 50.7229 33.5622C50.6358 33.7368 50.5904 33.9292 50.5904 34.1244C50.5904 34.3195 50.6358 34.512 50.7229 34.6866C50.8077 34.8459 50.9357 34.978 51.0923 35.0676C51.254 35.1561 51.4353 35.2024 51.6196 35.2024C51.804 35.2024 51.9853 35.1561 52.147 35.0676Z" fill="#707070"/>
<path d="M56.1612 32.7421L54.9299 35.5067H54.5466L53.3223 32.7421H53.7126L54.7464 35.0978L55.7918 32.7421H56.1612Z" fill="#707070"/>
<path d="M59.1462 34.2405H56.823C56.829 34.373 56.8615 34.5029 56.9185 34.6227C56.9756 34.7424 57.0561 34.8494 57.1552 34.9375C57.3655 35.1177 57.6359 35.2122 57.9126 35.2023C58.0722 35.2036 58.2304 35.172 58.3772 35.1094C58.5208 35.0492 58.6487 34.957 58.7513 34.8399L58.9627 35.0722C58.8374 35.2206 58.678 35.3362 58.4981 35.4091C58.3047 35.4869 58.0978 35.5256 57.8894 35.5229C57.6271 35.5281 57.3679 35.4657 57.1367 35.3417C56.9218 35.2259 56.7439 35.052 56.6232 34.8399C56.4986 34.619 56.4352 34.3687 56.4397 34.1151C56.4352 33.8623 56.496 33.6126 56.6163 33.3902C56.7276 33.1819 56.895 33.0089 57.0995 32.8907C57.3105 32.7734 57.548 32.7118 57.7895 32.7118C58.0309 32.7118 58.2684 32.7734 58.4795 32.8907C58.6815 33.0095 58.847 33.1815 58.958 33.3879C59.0755 33.612 59.1346 33.8621 59.13 34.1151L59.1462 34.2405ZM57.1413 33.2973C56.958 33.4718 56.8477 33.7092 56.8323 33.9617H58.7931C58.7798 33.7092 58.67 33.4713 58.4864 33.2973C58.3034 33.1266 58.0606 33.0348 57.8104 33.0418C57.6875 33.038 57.5651 33.0586 57.4502 33.1025C57.3354 33.1463 57.2304 33.2126 57.1413 33.2973Z" fill="#707070"/>
<path d="M60.794 32.8629C60.9931 32.7622 61.2145 32.7134 61.4375 32.7212V33.0836H61.3492C61.2229 33.0766 61.0965 33.0968 60.9787 33.1429C60.8608 33.189 60.7542 33.2599 60.6662 33.3508C60.4899 33.5605 60.4009 33.83 60.4176 34.1035V35.5113H60.0459V32.7467H60.4037V33.288C60.4831 33.107 60.6204 32.9574 60.794 32.8629Z" fill="#707070"/>
<path d="M64.6225 34.2405H62.311C62.3165 34.3729 62.3486 34.5028 62.4052 34.6225C62.4619 34.7422 62.542 34.8493 62.6408 34.9375C62.8511 35.1177 63.1215 35.2122 63.3982 35.2023C63.5578 35.2033 63.7159 35.1717 63.8629 35.1094C64.0058 35.0492 64.1329 34.957 64.2346 34.8399L64.446 35.0723C64.3207 35.2206 64.1613 35.3362 63.9813 35.4091C63.7888 35.4871 63.5827 35.5258 63.375 35.523C63.1119 35.5281 62.852 35.4657 62.6199 35.3417C62.4056 35.2252 62.2279 35.0515 62.1065 34.8399C61.9829 34.6186 61.9196 34.3686 61.923 34.1151C61.9253 33.863 61.9925 33.6158 62.1181 33.3972C62.2302 33.1894 62.3974 33.0166 62.6014 32.8977C62.8134 32.7766 63.0541 32.7148 63.2983 32.7188C63.5426 32.7136 63.7837 32.7755 63.9953 32.8977C64.1978 33.0159 64.3635 33.188 64.4739 33.3949C64.5931 33.6184 64.6531 33.8688 64.6481 34.1221L64.6225 34.2405ZM62.6176 33.2973C62.435 33.472 62.3255 33.7095 62.311 33.9618H64.2717C64.2564 33.7092 64.146 33.4718 63.9628 33.2973C63.7774 33.1327 63.5381 33.0418 63.2902 33.0418C63.0423 33.0418 62.803 33.1327 62.6176 33.2973Z" fill="#707070"/>
<path d="M65.5165 32.059C65.4911 32.0348 65.471 32.0056 65.4574 31.9732C65.4438 31.9408 65.4371 31.906 65.4375 31.8709C65.4371 31.8361 65.4439 31.8016 65.4575 31.7696C65.4711 31.7377 65.4912 31.7088 65.5165 31.685C65.5421 31.6594 65.5725 31.6392 65.606 31.6257C65.6396 31.6121 65.6755 31.6054 65.7117 31.606C65.7473 31.605 65.7828 31.6113 65.816 31.6245C65.8491 31.6377 65.8792 31.6575 65.9045 31.6827C65.9302 31.7052 65.9506 31.7332 65.9642 31.7645C65.9779 31.7958 65.9844 31.8297 65.9835 31.8639C65.9844 31.9001 65.9778 31.9361 65.9642 31.9697C65.9506 32.0032 65.9303 32.0336 65.9045 32.059C65.8797 32.085 65.8497 32.1055 65.8165 32.1191C65.7833 32.1327 65.7475 32.1392 65.7117 32.138C65.6754 32.1392 65.6393 32.1328 65.6057 32.1192C65.5721 32.1056 65.5417 32.0851 65.5165 32.059ZM65.5165 32.7421H65.8905V35.5067H65.5165V32.7421Z" fill="#707070"/>
<path d="M69.6261 32.7421V35.1698C69.6424 35.3579 69.6203 35.5474 69.5612 35.7267C69.5021 35.906 69.4072 36.0714 69.2822 36.2129C69.1401 36.3353 68.9752 36.4282 68.7969 36.4864C68.6187 36.5447 68.4307 36.567 68.2437 36.5521C67.997 36.5534 67.7516 36.5158 67.5166 36.4406C67.3098 36.3769 67.119 36.27 66.9567 36.127L67.1449 35.8436C67.2878 35.9674 67.4535 36.0621 67.6327 36.1223C67.8264 36.1886 68.0298 36.2223 68.2345 36.2222C68.5136 36.2456 68.7908 36.158 69.0058 35.9783C69.0955 35.8745 69.1638 35.7539 69.2064 35.6235C69.2491 35.493 69.2654 35.3554 69.2543 35.2186V34.8655C69.1394 35.0391 68.9785 35.1774 68.7897 35.2651C68.5953 35.3575 68.3823 35.4044 68.1671 35.4021C67.9203 35.4048 67.6767 35.3457 67.4585 35.2302C67.2511 35.1206 67.0788 34.9547 66.9613 34.7516C66.8401 34.5394 66.7764 34.2991 66.7764 34.0547C66.7764 33.8102 66.8401 33.57 66.9613 33.3577C67.0814 33.1611 67.2524 33.0005 67.4562 32.8931C67.6758 32.7796 67.92 32.7222 68.1671 32.7258C68.3867 32.7224 68.604 32.771 68.8013 32.8675C68.9914 32.9587 69.1523 33.1011 69.266 33.2787V32.7467L69.6261 32.7421ZM68.7549 34.9422C68.9112 34.8601 69.041 34.7352 69.1289 34.5821C69.2206 34.4225 69.2671 34.241 69.2636 34.057C69.2677 33.8737 69.221 33.6928 69.1289 33.5343C69.0412 33.3823 68.9124 33.2583 68.7572 33.1765C68.5897 33.0885 68.4028 33.0437 68.2135 33.0464C68.026 33.0429 67.8406 33.0869 67.6746 33.1742C67.5188 33.255 67.3892 33.3782 67.3005 33.5296C67.2121 33.6909 67.1657 33.8719 67.1657 34.0558C67.1657 34.2398 67.2121 34.4208 67.3005 34.5821C67.3892 34.7346 67.5187 34.8594 67.6746 34.9422C67.8406 35.0295 68.026 35.0735 68.2135 35.0699C68.4018 35.0728 68.5878 35.0289 68.7549 34.9422Z" fill="#707070"/>
<path d="M73.0365 33.0232C73.1447 33.1415 73.2276 33.2806 73.2803 33.4319C73.333 33.5833 73.3544 33.7438 73.3432 33.9037V35.5067H72.9692V33.9409C72.9851 33.7024 72.9086 33.4669 72.7554 33.2834C72.6748 33.2037 72.5784 33.1418 72.4723 33.1018C72.3663 33.0617 72.253 33.0445 72.1398 33.0511C72.0117 33.0455 71.8839 33.0662 71.764 33.1117C71.6442 33.1572 71.5349 33.2267 71.4428 33.3159C71.3525 33.4146 71.2829 33.5305 71.2382 33.6566C71.1935 33.7827 71.1746 33.9165 71.1826 34.05V35.4997H70.8086V32.7351H71.1664V33.2462C71.267 33.0777 71.4137 32.9415 71.5892 32.8536C71.7841 32.7576 71.9992 32.7098 72.2165 32.7142C72.3668 32.7086 72.5168 32.733 72.6576 32.7861C72.7985 32.8391 72.9273 32.9197 73.0365 33.0232Z" fill="#707070"/>
<path d="M75.9499 35.3394C75.8746 35.4056 75.7858 35.4547 75.6897 35.4835C75.5852 35.516 75.4763 35.5325 75.3668 35.5322C75.258 35.5395 75.1488 35.5247 75.0458 35.4888C74.9428 35.4529 74.8481 35.3965 74.7674 35.3231C74.6936 35.2436 74.6368 35.1498 74.6005 35.0475C74.5642 34.9453 74.549 34.8367 74.556 34.7284V33.058H74.0635V32.7421H74.556V32.138H74.93V32.7421H75.771V33.058H74.93V34.7075C74.9206 34.8442 74.9648 34.9792 75.0532 35.0839C75.1002 35.1289 75.1561 35.1635 75.2173 35.1855C75.2785 35.2075 75.3437 35.2164 75.4086 35.2116C75.4874 35.2128 75.5659 35.201 75.6409 35.1768C75.7094 35.1539 75.7726 35.1176 75.8268 35.0699L75.9499 35.3394Z" fill="#707070"/>
<path d="M79.0307 32.7421L77.6484 35.8389C77.5678 36.0529 77.4333 36.2425 77.2581 36.3895C77.1043 36.5007 76.9181 36.5579 76.7284 36.5521C76.601 36.5532 76.4744 36.532 76.3544 36.4894C76.2417 36.4498 76.1393 36.3855 76.0547 36.3012L76.2289 36.0224C76.2946 36.0894 76.3731 36.1424 76.4597 36.1784C76.5463 36.2143 76.6393 36.2324 76.7331 36.2315C76.8495 36.2347 76.9635 36.1978 77.056 36.127C77.1663 36.0289 77.2523 35.9064 77.3069 35.7692L77.4277 35.502L76.1918 32.7421H76.5797L77.6205 35.0908L78.6613 32.7421H79.0307Z" fill="#707070"/>
<path d="M81.2754 31.606H81.6332V36.5266H81.287L81.2754 31.606Z" fill="#707070"/>
<path d="M87.5408 31.8267V35.5067H87.1551V33.8084H84.8528V35.5067H84.4648V31.8267H84.8528V33.4669H87.1551V31.8267H87.5408Z" fill="#707070"/>
<path d="M89.1993 35.351C88.9886 35.2329 88.8143 35.0593 88.6951 34.8492C88.5748 34.6266 88.5117 34.3775 88.5117 34.1244C88.5117 33.8713 88.5748 33.6222 88.6951 33.3995C88.8136 33.1895 88.9882 33.0166 89.1993 32.9C89.4212 32.7827 89.6684 32.7213 89.9195 32.7213C90.1705 32.7213 90.4177 32.7827 90.6397 32.9C90.8506 33.016 91.0245 33.1892 91.1415 33.3995C91.2604 33.6226 91.3227 33.8716 91.3227 34.1244C91.3227 34.3772 91.2604 34.6261 91.1415 34.8492C91.0239 35.0598 90.8502 35.2335 90.6397 35.351C90.4182 35.47 90.1708 35.5322 89.9195 35.5322C89.6681 35.5322 89.4207 35.47 89.1993 35.351ZM90.4491 35.0676C90.605 34.9785 90.7317 34.8462 90.8139 34.6866C90.901 34.512 90.9464 34.3195 90.9464 34.1244C90.9464 33.9292 90.901 33.7368 90.8139 33.5622C90.7317 33.4026 90.605 33.2703 90.4491 33.1812C90.287 33.0927 90.1053 33.0463 89.9206 33.0463C89.7359 33.0463 89.5542 33.0927 89.3921 33.1812C89.2354 33.2699 89.1079 33.4023 89.025 33.5622C88.9365 33.7363 88.8903 33.929 88.8903 34.1244C88.8903 34.3198 88.9365 34.5124 89.025 34.6866C89.1079 34.8465 89.2354 34.9788 89.3921 35.0676C89.5542 35.156 89.7359 35.2024 89.9206 35.2024C90.1053 35.2024 90.287 35.156 90.4491 35.0676Z" fill="#707070"/>
<path d="M92.2168 31.606H92.5908V35.5067H92.2168V31.606Z" fill="#707070"/>
<path d="M93.7577 32.059C93.7323 32.0348 93.7122 32.0056 93.6986 31.9732C93.685 31.9408 93.6783 31.906 93.6787 31.8709C93.6783 31.8361 93.6851 31.8016 93.6987 31.7696C93.7123 31.7377 93.7324 31.7088 93.7577 31.685C93.7833 31.6594 93.8137 31.6392 93.8473 31.6257C93.8808 31.6121 93.9167 31.6054 93.9529 31.606C93.9885 31.605 94.024 31.6113 94.0572 31.6245C94.0903 31.6377 94.1205 31.6575 94.1457 31.6827C94.1714 31.7052 94.1918 31.7332 94.2054 31.7645C94.2191 31.7958 94.2257 31.8297 94.2247 31.8639C94.2256 31.9001 94.219 31.9361 94.2054 31.9697C94.1918 32.0032 94.1715 32.0336 94.1457 32.059C94.1209 32.085 94.0909 32.1055 94.0577 32.1191C94.0245 32.1327 93.9888 32.1392 93.9529 32.138C93.9166 32.1392 93.8806 32.1328 93.847 32.1192C93.8134 32.1056 93.783 32.0851 93.7577 32.059ZM93.7577 32.7421H94.1318V35.5067H93.7577V32.7421Z" fill="#707070"/>
<path d="M95.4047 35.437C95.2297 35.3877 95.0662 35.304 94.9238 35.1907L95.0934 34.898C95.2235 35.0003 95.3706 35.0789 95.5279 35.1303C95.7048 35.1882 95.8899 35.2172 96.0761 35.2163C96.2701 35.2296 96.4641 35.1886 96.636 35.0978C96.6929 35.0634 96.7396 35.0145 96.7714 34.9561C96.8032 34.8978 96.8191 34.832 96.8172 34.7656C96.8182 34.722 96.8098 34.6786 96.7926 34.6386C96.7753 34.5985 96.7497 34.5626 96.7173 34.5333C96.6434 34.4715 96.557 34.4263 96.4641 34.4008C96.3311 34.3644 96.1962 34.3357 96.0599 34.3149C95.8769 34.2828 95.6961 34.2394 95.5186 34.1848C95.3832 34.1396 95.2622 34.0594 95.1678 33.9525C95.0662 33.8304 95.0147 33.6743 95.0237 33.5157C95.0224 33.4047 95.0482 33.2951 95.0988 33.1963C95.1494 33.0976 95.2233 33.0126 95.3141 32.9488C95.5492 32.785 95.8317 32.7033 96.1179 32.7165C96.2992 32.7165 96.4797 32.7407 96.6546 32.7885C96.8108 32.8263 96.9598 32.8891 97.096 32.9744L96.9311 33.2741C96.6906 33.1143 96.4065 33.0331 96.1179 33.0418C95.9277 33.0269 95.7374 33.0698 95.572 33.1649C95.5161 33.2004 95.4701 33.2495 95.4384 33.3076C95.4067 33.3657 95.3903 33.4309 95.3908 33.4971C95.3889 33.5438 95.3971 33.5903 95.4147 33.6336C95.4324 33.6769 95.4591 33.7159 95.493 33.748C95.565 33.8154 95.6529 33.8634 95.7486 33.8874C95.887 33.9257 96.0274 33.9567 96.1691 33.9803C96.3479 34.0121 96.5247 34.054 96.6987 34.1058C96.8298 34.1461 96.9477 34.2207 97.0403 34.3219C97.1404 34.4382 97.1912 34.5891 97.182 34.7424C97.1848 34.8561 97.1586 34.9688 97.1057 35.0696C97.0529 35.1704 96.9752 35.2561 96.88 35.3185C96.6288 35.4735 96.3359 35.5473 96.0413 35.5299C95.8256 35.5314 95.611 35.5001 95.4047 35.437Z" fill="#707070"/>
<path d="M99.4655 35.3394C99.3902 35.4056 99.3014 35.4547 99.2053 35.4834C99.1008 35.516 98.9919 35.5325 98.8824 35.5322C98.7735 35.5447 98.6632 35.5325 98.5597 35.4966C98.4562 35.4607 98.362 35.402 98.2842 35.3248C98.2063 35.2477 98.1468 35.154 98.11 35.0508C98.0733 34.9476 98.0601 34.8374 98.0716 34.7284V33.058H97.5791V32.7421H98.0716V32.138H98.4457V32.7421H99.289V33.058H98.448V34.7075C98.4386 34.8442 98.4827 34.9792 98.5711 35.0839C98.6181 35.1289 98.674 35.1635 98.7353 35.1855C98.7965 35.2075 98.8617 35.2164 98.9266 35.2116C99.0054 35.2128 99.0839 35.201 99.1589 35.1768C99.2273 35.1539 99.2905 35.1176 99.3447 35.0699L99.4655 35.3394Z" fill="#707070"/>
<path d="M100.269 32.059C100.244 32.0348 100.224 32.0056 100.21 31.9732C100.197 31.9408 100.19 31.906 100.19 31.8709C100.19 31.8361 100.197 31.8016 100.21 31.7696C100.224 31.7377 100.244 31.7088 100.269 31.685C100.322 31.635 100.392 31.6071 100.465 31.6071C100.537 31.6071 100.607 31.635 100.66 31.685C100.684 31.7084 100.704 31.7366 100.717 31.7677C100.73 31.7989 100.737 31.8324 100.736 31.8662C100.737 31.9022 100.731 31.938 100.718 31.9715C100.704 32.005 100.685 32.0355 100.66 32.0614C100.607 32.1119 100.537 32.1401 100.465 32.1401C100.392 32.1401 100.322 32.1119 100.269 32.0614V32.059ZM100.269 32.7421H100.643V35.5067H100.269V32.7421Z" fill="#707070"/>
<path d="M102.233 35.3534C102.02 35.2373 101.844 35.0633 101.726 34.8516C101.606 34.6285 101.543 34.379 101.543 34.1256C101.543 33.8721 101.606 33.6226 101.726 33.3995C101.845 33.1889 102.021 33.0159 102.233 32.9001C102.458 32.7788 102.711 32.7172 102.967 32.7212C103.188 32.7175 103.407 32.7653 103.606 32.8606C103.79 32.9509 103.944 33.092 104.05 33.2671L103.771 33.4576C103.685 33.3256 103.566 33.2189 103.425 33.1486C103.28 33.0794 103.121 33.0444 102.96 33.0464C102.772 33.0441 102.586 33.0905 102.421 33.1812C102.262 33.2688 102.132 33.4013 102.047 33.5622C101.958 33.7368 101.912 33.9298 101.912 34.1256C101.912 34.3213 101.958 34.5143 102.047 34.6889C102.133 34.8484 102.263 34.9798 102.421 35.0676C102.586 35.1594 102.772 35.2058 102.96 35.2024C103.12 35.2052 103.279 35.171 103.425 35.1025C103.565 35.0339 103.685 34.9288 103.771 34.7981L104.05 34.9863C103.944 35.1632 103.788 35.3047 103.601 35.3929C103.403 35.4879 103.186 35.5357 102.967 35.5322C102.711 35.5374 102.458 35.4757 102.233 35.3534Z" fill="#707070"/>
<path d="M106.491 31.606H106.837V36.5266H106.491V31.606Z" fill="#707070"/>
<path d="M111.997 34.524H109.945L109.504 35.5067H109.1L110.782 31.8267H111.165L112.847 35.5067H112.438L111.997 34.524ZM111.853 34.208L110.97 32.2333L110.087 34.208H111.853Z" fill="#707070"/>
<path d="M116.044 32.7421V35.1698C116.073 35.359 116.057 35.5522 115.997 35.7339C115.937 35.9156 115.834 36.0805 115.699 36.2152C115.563 36.3499 115.397 36.4507 115.215 36.5092C115.033 36.5678 114.839 36.5825 114.65 36.5521C114.403 36.5536 114.157 36.5159 113.921 36.4406C113.714 36.3764 113.524 36.2695 113.361 36.127L113.551 35.8435C113.694 35.9674 113.858 36.0621 114.037 36.1223C114.231 36.1885 114.434 36.2223 114.639 36.2222C114.919 36.246 115.197 36.1583 115.412 35.9783C115.502 35.8743 115.57 35.7536 115.612 35.6232C115.654 35.4927 115.67 35.3552 115.659 35.2186V34.8655C115.544 35.0395 115.383 35.178 115.194 35.2651C115 35.3578 114.787 35.4046 114.571 35.4021C114.328 35.4033 114.089 35.3442 113.874 35.2302C113.666 35.1206 113.493 34.9548 113.375 34.7516C113.255 34.5388 113.192 34.2988 113.192 34.0547C113.192 33.8105 113.255 33.5705 113.375 33.3577C113.495 33.1604 113.667 32.9998 113.872 32.8931C114.087 32.7812 114.327 32.7238 114.569 32.7258C114.789 32.722 115.008 32.7706 115.206 32.8675C115.395 32.9599 115.556 33.102 115.67 33.2787V32.7467L116.044 32.7421ZM115.171 34.9421C115.329 34.8601 115.461 34.7353 115.552 34.582C115.642 34.422 115.689 34.2408 115.687 34.057C115.689 33.8738 115.643 33.6932 115.552 33.5343C115.463 33.382 115.334 33.2579 115.178 33.1765C115.01 33.0917 114.824 33.0476 114.636 33.0476C114.448 33.0476 114.263 33.0917 114.095 33.1765C113.94 33.2569 113.811 33.3803 113.723 33.5319C113.635 33.6932 113.589 33.8742 113.589 34.0582C113.589 34.2421 113.635 34.4231 113.723 34.5844C113.811 34.7372 113.94 34.862 114.095 34.9445C114.263 35.0285 114.448 35.0722 114.635 35.0722C114.823 35.0722 115.008 35.0285 115.175 34.9445L115.171 34.9421Z" fill="#707070"/>
<path d="M117.215 32.0591C117.19 32.0345 117.17 32.0052 117.156 31.9729C117.143 31.9406 117.136 31.9059 117.136 31.8709C117.136 31.8362 117.143 31.8019 117.156 31.77C117.17 31.7381 117.19 31.7092 117.215 31.685C117.267 31.635 117.337 31.6071 117.41 31.6071C117.483 31.6071 117.552 31.635 117.605 31.685C117.63 31.7083 117.65 31.7364 117.663 31.7675C117.677 31.7987 117.684 31.8323 117.684 31.8662C117.684 31.9024 117.678 31.9382 117.664 31.9717C117.65 32.0052 117.63 32.0357 117.605 32.0614C117.553 32.1119 117.483 32.1402 117.41 32.1402C117.337 32.1402 117.267 32.1119 117.215 32.0614V32.0591ZM117.215 32.7421H117.589V35.5067H117.215V32.7421Z" fill="#707070"/>
<path d="M118.767 31.606H119.138V35.5067H118.767V31.606Z" fill="#707070"/>
<path d="M120.305 32.0591C120.281 32.0344 120.261 32.005 120.248 31.9727C120.235 31.9404 120.228 31.9058 120.229 31.8709C120.228 31.8363 120.235 31.8021 120.248 31.7702C120.261 31.7383 120.281 31.7093 120.305 31.685C120.358 31.635 120.428 31.6071 120.5 31.6071C120.573 31.6071 120.643 31.635 120.695 31.685C120.721 31.7076 120.742 31.7355 120.755 31.7668C120.769 31.7981 120.775 31.8321 120.774 31.8662C120.773 31.9194 120.756 31.9711 120.726 32.015C120.696 32.0589 120.654 32.0932 120.605 32.1138C120.556 32.1344 120.502 32.1404 120.45 32.1311C120.397 32.1218 120.349 32.0976 120.31 32.0614L120.305 32.0591ZM120.305 32.7421H120.677V35.5067H120.305V32.7421Z" fill="#707070"/>
<path d="M123.314 35.3394C123.238 35.4049 123.149 35.4539 123.053 35.4835C122.948 35.5162 122.838 35.5327 122.728 35.5322C122.62 35.5393 122.511 35.5244 122.408 35.4885C122.306 35.4526 122.211 35.3963 122.131 35.3231C122.057 35.2436 122 35.1498 121.964 35.0475C121.928 34.9453 121.913 34.8367 121.92 34.7284V33.058H121.425V32.7421H121.92V32.138H122.289V32.7421H123.13V33.058H122.289V34.7075C122.279 34.8443 122.323 34.9797 122.412 35.0839C122.459 35.1289 122.515 35.1635 122.576 35.1855C122.638 35.2075 122.703 35.2164 122.768 35.2116C122.846 35.2128 122.925 35.201 123 35.1768C123.068 35.1534 123.131 35.1171 123.186 35.0699L123.314 35.3394Z" fill="#707070"/>
<path d="M126.392 32.7421L125.009 35.8389C124.929 36.0527 124.796 36.2423 124.621 36.3895C124.467 36.5007 124.28 36.5579 124.089 36.5521C123.963 36.5531 123.837 36.5318 123.718 36.4894C123.605 36.4498 123.503 36.3855 123.418 36.3012L123.592 36.0224C123.658 36.0894 123.736 36.1424 123.823 36.1784C123.91 36.2143 124.003 36.2324 124.096 36.2315C124.213 36.2343 124.327 36.1974 124.419 36.127C124.529 36.0286 124.614 35.9061 124.668 35.7692L124.789 35.502L123.555 32.7421H123.943L124.984 35.0908L126.025 32.7421H126.392Z" fill="#707070"/>
<path d="M95.3864 20.9355C95.8323 21.5393 96.0608 22.2763 96.0346 23.0264C96.0575 23.554 95.9443 24.0785 95.7059 24.5497C95.4674 25.0208 95.1118 25.4227 94.6732 25.7167C93.7672 26.3455 92.446 26.6599 90.7098 26.6599H84.1444C84.0604 26.6599 83.9798 26.6267 83.9202 26.5675C83.8606 26.5083 83.8268 26.428 83.8262 26.344V13.65C83.8268 13.5657 83.8605 13.4851 83.9201 13.4256C83.9796 13.366 84.0602 13.3323 84.1444 13.3317H90.3288C91.9535 13.3317 93.1988 13.6415 94.0645 14.261C94.4773 14.5387 94.8133 14.9163 95.0411 15.3586C95.269 15.8009 95.3813 16.2936 95.3678 16.7909C95.3774 17.3999 95.2164 17.9994 94.9032 18.5217C94.6957 18.8596 94.427 19.1558 94.111 19.3953C94.0669 19.4272 94.0317 19.4699 94.0088 19.5194C93.9859 19.5688 93.9761 19.6233 93.9803 19.6776C93.9844 19.7319 94.0025 19.7843 94.0327 19.8296C94.0629 19.875 94.1043 19.9118 94.1528 19.9366C94.6383 20.1657 95.0614 20.5083 95.3864 20.9355ZM86.8882 15.9732V18.4776C86.8882 18.5193 86.8964 18.5606 86.9124 18.599C86.9285 18.6375 86.9519 18.6725 86.9815 18.7018C87.0111 18.7312 87.0462 18.7544 87.0848 18.7702C87.1234 18.7859 87.1647 18.7939 87.2064 18.7935H89.9501C90.7106 18.7935 91.2868 18.6603 91.6786 18.394C91.8709 18.2659 92.0264 18.0898 92.1299 17.8833C92.2334 17.6767 92.2812 17.4468 92.2687 17.2161C92.2804 16.9878 92.2321 16.7604 92.1286 16.5566C92.025 16.3528 91.8699 16.1797 91.6786 16.0545C91.2852 15.7943 90.709 15.6642 89.9501 15.6642H87.2088C87.1254 15.6629 87.0448 15.6947 86.9848 15.7526C86.9247 15.8105 86.89 15.8898 86.8882 15.9732ZM92.3198 23.9302C92.523 23.7973 92.6874 23.6129 92.7959 23.3958C92.9045 23.1786 92.9535 22.9365 92.9378 22.6942C92.9378 21.5915 92.12 21.0401 90.4845 21.0401H87.2088C87.1243 21.0401 87.0434 21.0736 86.9837 21.1333C86.924 21.193 86.8905 21.274 86.8905 21.3584V24.0115C86.8896 24.0538 86.8971 24.096 86.9127 24.1354C86.9282 24.1748 86.9516 24.2107 86.9812 24.241C87.0108 24.2713 87.0462 24.2954 87.0853 24.3118C87.1244 24.3283 87.1664 24.3367 87.2088 24.3367H90.4845C91.2929 24.3367 91.904 24.195 92.3198 23.9302Z" fill="#707070"/>
<path d="M101.556 25.9838C100.478 25.4175 99.5774 24.5656 98.9518 23.5213C98.3352 22.4482 98.0107 21.2322 98.0107 19.9946C98.0107 18.757 98.3352 17.5411 98.9518 16.468C99.5768 15.4232 100.478 14.571 101.556 14.0054C102.712 13.4174 103.99 13.1109 105.287 13.1109C106.584 13.1109 107.862 13.4174 109.018 14.0054C110.104 14.5845 111.011 15.4476 111.644 16.5025C112.277 17.5574 112.611 18.7645 112.611 19.9946C112.611 21.2248 112.277 22.4318 111.644 23.4867C111.011 24.5416 110.104 25.4048 109.018 25.9838C107.862 26.5704 106.584 26.8761 105.287 26.8761C103.991 26.8761 102.712 26.5704 101.556 25.9838ZM107.42 23.7118C108.048 23.3558 108.564 22.8321 108.911 22.1994C109.268 21.5183 109.454 20.761 109.454 19.9923C109.454 19.2236 109.268 18.4663 108.911 17.7853C108.565 17.1515 108.049 16.6275 107.42 16.2729C106.766 15.9176 106.034 15.7315 105.291 15.7315C104.547 15.7315 103.815 15.9176 103.161 16.2729C102.532 16.6281 102.015 17.1519 101.668 17.7853C101.311 18.4663 101.125 19.2236 101.125 19.9923C101.125 20.761 101.311 21.5183 101.668 22.1994C102.016 22.8318 102.533 23.3553 103.161 23.7118C103.815 24.067 104.547 24.2531 105.291 24.2531C106.034 24.2531 106.766 24.067 107.42 23.7118Z" fill="#707070"/>
<path d="M123.186 26.5135L120.328 22.4061C120.299 22.364 120.26 22.3295 120.214 22.3057C120.169 22.2819 120.118 22.2695 120.067 22.2695C120.015 22.2695 119.965 22.2819 119.919 22.3057C119.874 22.3295 119.835 22.364 119.805 22.4061L117.004 26.5089C116.975 26.5513 116.936 26.5859 116.891 26.6098C116.845 26.6337 116.795 26.6461 116.743 26.646H113.997C113.939 26.6459 113.882 26.6297 113.832 26.5991C113.782 26.5685 113.741 26.5247 113.715 26.4726C113.688 26.4205 113.676 26.3621 113.681 26.3037C113.685 26.2454 113.705 26.1893 113.74 26.1418L118.154 20.062C118.193 20.0084 118.214 19.9437 118.214 19.8773C118.214 19.8109 118.193 19.7463 118.154 19.6926L113.972 13.8381C113.938 13.7906 113.919 13.7349 113.914 13.6769C113.91 13.6189 113.922 13.5608 113.949 13.5091C113.975 13.4574 114.016 13.414 114.065 13.3835C114.115 13.353 114.172 13.3367 114.23 13.3363H116.946C116.996 13.3365 117.046 13.3488 117.091 13.3723C117.136 13.3957 117.174 13.4296 117.203 13.4711L119.91 17.2858C119.939 17.327 119.978 17.3606 120.023 17.3838C120.068 17.407 120.118 17.4191 120.169 17.4191C120.22 17.4191 120.27 17.407 120.315 17.3838C120.36 17.3606 120.399 17.327 120.428 17.2858L123.081 13.4757C123.11 13.4334 123.149 13.3987 123.194 13.3748C123.24 13.3509 123.29 13.3385 123.341 13.3387H125.883C125.941 13.3392 125.998 13.3557 126.048 13.3865C126.098 13.4172 126.138 13.461 126.164 13.513C126.19 13.565 126.202 13.6233 126.197 13.6815C126.193 13.7396 126.173 13.7954 126.139 13.8428L121.996 19.5811C121.958 19.6354 121.937 19.7004 121.937 19.767C121.937 19.8336 121.958 19.8985 121.996 19.9528L126.471 26.1465C126.507 26.1938 126.53 26.2505 126.536 26.3102C126.542 26.3698 126.531 26.4298 126.504 26.4835C126.478 26.5371 126.436 26.5821 126.385 26.6133C126.334 26.6445 126.275 26.6607 126.215 26.6599H123.451C123.398 26.6594 123.346 26.6458 123.3 26.6202C123.253 26.5947 123.214 26.558 123.186 26.5135Z" fill="#707070"/>
<path d="M12.8961 19.9551V24.1648C12.8958 24.1878 12.8896 24.2103 12.878 24.2302C12.8664 24.25 12.8498 24.2665 12.8298 24.278C12.8099 24.2895 12.7873 24.2956 12.7643 24.2957C12.7413 24.2958 12.7187 24.2899 12.6986 24.2786L3.85884 19.307C3.78922 19.2687 3.73101 19.2126 3.69019 19.1444C3.64937 19.0762 3.6274 18.9984 3.62652 18.919V15.3273C3.59771 14.841 3.47115 14.3655 3.2544 13.9292C3.03765 13.4929 2.73517 13.1048 2.36502 12.7881C1.66806 12.2491 0.355453 11.4871 0.274141 11.429C0.125456 11.3337 0.0162652 11.4127 0.0162652 11.5544L1.03167e-06 16.5493V28.4929C-0.000464643 29.0907 0.156724 29.678 0.455705 30.1956C0.754687 30.7132 1.18489 31.1428 1.70291 31.4411L3.43834 32.4424C3.45872 32.4536 3.48167 32.4594 3.50494 32.4591C3.52821 32.4588 3.55101 32.4526 3.57113 32.4409C3.59125 32.4292 3.608 32.4124 3.61974 32.3924C3.63148 32.3723 3.63782 32.3495 3.63814 32.3262V24.0022C3.638 23.979 3.64395 23.9561 3.65541 23.936C3.66686 23.9158 3.68342 23.899 3.70342 23.8872C3.72342 23.8754 3.74616 23.8691 3.76936 23.8689C3.79256 23.8687 3.8154 23.8746 3.83561 23.886L12.6754 28.8577C12.7454 28.8956 12.8038 28.9516 12.8447 29.0198C12.8856 29.0881 12.9073 29.1661 12.9077 29.2456V35.6763C12.9076 36.348 13.0842 37.008 13.4198 37.5899C13.7554 38.1718 14.2382 38.6552 14.8197 38.9915L16.518 39.9742C16.5407 39.9897 16.5672 39.9985 16.5946 39.9998C16.622 40.0011 16.6493 39.9948 16.6734 39.9816C16.6974 39.9684 16.7173 39.9487 16.7309 39.9249C16.7445 39.901 16.7512 39.8739 16.7503 39.8464V21.3165C16.7499 20.8576 16.814 20.4009 16.9408 19.9598L13.1749 18.1593C12.9967 18.7415 12.9028 19.3463 12.8961 19.9551Z" fill="url(#paint0_linear_3041_151414)"/>
<path d="M12.8961 19.9551V24.1648C12.8958 24.1878 12.8896 24.2103 12.878 24.2302C12.8664 24.25 12.8498 24.2665 12.8298 24.278C12.8099 24.2895 12.7873 24.2956 12.7643 24.2957C12.7413 24.2958 12.7187 24.2899 12.6986 24.2786L3.85884 19.307C3.78922 19.2687 3.73101 19.2126 3.69019 19.1444C3.64937 19.0762 3.6274 18.9984 3.62652 18.919V15.3273C3.59771 14.841 3.47115 14.3655 3.2544 13.9292C3.03765 13.4929 2.73517 13.1048 2.36502 12.7881C1.66806 12.2491 0.355453 11.4871 0.274141 11.429C0.125456 11.3337 0.0162652 11.4127 0.0162652 11.5544L1.03167e-06 16.5493V28.4929C-0.000464643 29.0907 0.156724 29.678 0.455705 30.1956C0.754687 30.7132 1.18489 31.1428 1.70291 31.4411L3.43834 32.4424C3.45872 32.4536 3.48167 32.4594 3.50494 32.4591C3.52821 32.4588 3.55101 32.4526 3.57113 32.4409C3.59125 32.4292 3.608 32.4124 3.61974 32.3924C3.63148 32.3723 3.63782 32.3495 3.63814 32.3262V24.0022C3.638 23.979 3.64395 23.9561 3.65541 23.936C3.66686 23.9158 3.68342 23.899 3.70342 23.8872C3.72342 23.8754 3.74616 23.8691 3.76936 23.8689C3.79256 23.8687 3.8154 23.8746 3.83561 23.886L12.6754 28.8577C12.7454 28.8956 12.8038 28.9516 12.8447 29.0198C12.8856 29.0881 12.9073 29.1661 12.9077 29.2456V35.6763C12.9076 36.348 13.0842 37.008 13.4198 37.5899C13.7554 38.1718 14.2382 38.6552 14.8197 38.9915L16.518 39.9742C16.5407 39.9897 16.5672 39.9985 16.5946 39.9998C16.622 40.0011 16.6493 39.9948 16.6734 39.9816C16.6974 39.9684 16.7173 39.9487 16.7309 39.9249C16.7445 39.901 16.7512 39.8739 16.7503 39.8464V21.3165C16.7499 20.8576 16.814 20.4009 16.9408 19.9598L13.1749 18.1593C12.9967 18.7415 12.9028 19.3463 12.8961 19.9551Z" fill="url(#paint1_radial_3041_151414)"/>
<path d="M12.8961 19.9551V24.1648C12.8958 24.1878 12.8896 24.2103 12.878 24.2302C12.8664 24.25 12.8498 24.2665 12.8298 24.278C12.8099 24.2895 12.7873 24.2956 12.7643 24.2957C12.7413 24.2958 12.7187 24.2899 12.6986 24.2786L3.85884 19.307C3.78922 19.2687 3.73101 19.2126 3.69019 19.1444C3.64937 19.0762 3.6274 18.9984 3.62652 18.919V15.3273C3.59771 14.841 3.47115 14.3655 3.2544 13.9292C3.03765 13.4929 2.73517 13.1048 2.36502 12.7881C1.66806 12.2491 0.355453 11.4871 0.274141 11.429C0.125456 11.3337 0.0162652 11.4127 0.0162652 11.5544L1.03167e-06 16.5493V28.4929C-0.000464643 29.0907 0.156724 29.678 0.455705 30.1956C0.754687 30.7132 1.18489 31.1428 1.70291 31.4411L3.43834 32.4424C3.45872 32.4536 3.48167 32.4594 3.50494 32.4591C3.52821 32.4588 3.55101 32.4526 3.57113 32.4409C3.59125 32.4292 3.608 32.4124 3.61974 32.3924C3.63148 32.3723 3.63782 32.3495 3.63814 32.3262V24.0022C3.638 23.979 3.64395 23.9561 3.65541 23.936C3.66686 23.9158 3.68342 23.899 3.70342 23.8872C3.72342 23.8754 3.74616 23.8691 3.76936 23.8689C3.79256 23.8687 3.8154 23.8746 3.83561 23.886L12.6754 28.8577C12.7454 28.8956 12.8038 28.9516 12.8447 29.0198C12.8856 29.0881 12.9073 29.1661 12.9077 29.2456V35.6763C12.9076 36.348 13.0842 37.008 13.4198 37.5899C13.7554 38.1718 14.2382 38.6552 14.8197 38.9915L16.518 39.9742C16.5407 39.9897 16.5672 39.9985 16.5946 39.9998C16.622 40.0011 16.6493 39.9948 16.6734 39.9816C16.6974 39.9684 16.7173 39.9487 16.7309 39.9249C16.7445 39.901 16.7512 39.8739 16.7503 39.8464V21.3165C16.7499 20.8576 16.814 20.4009 16.9408 19.9598L13.1749 18.1593C12.9967 18.7415 12.9028 19.3463 12.8961 19.9551Z" fill="url(#paint2_linear_3041_151414)"/>
<path d="M34.4904 13.9938C34.4904 13.0343 33.2266 11.2803 30.541 12.8996L20.6557 18.6239C20.052 18.9564 19.5513 19.4484 19.2084 20.0462C18.8655 20.644 18.6935 21.3245 18.7112 22.0135V39.2563C18.7109 39.2858 18.7185 39.3148 18.7331 39.3405C18.7476 39.3661 18.7687 39.3875 18.7942 39.4023C18.8197 39.4172 18.8486 39.425 18.8781 39.4251C18.9076 39.4252 18.9366 39.4174 18.9621 39.4027L21.1668 38.1296C21.6186 37.8693 21.9937 37.4945 22.2543 37.043C22.515 36.5914 22.6519 36.0791 22.6514 35.5578V31.1669L30.5503 26.5879V32.4122C30.5507 32.4392 30.558 32.4658 30.5716 32.4892C30.5852 32.5126 30.6046 32.5321 30.6279 32.5459C30.6513 32.5597 30.6777 32.5672 30.7048 32.5678C30.7319 32.5684 30.7587 32.562 30.7826 32.5492L33.0291 31.218C33.4725 30.955 33.8398 30.581 34.0948 30.1329C34.3498 29.6849 34.4838 29.1781 34.4834 28.6625L34.4904 13.9938ZM30.541 22.0251L22.6421 26.6042V23.1588C22.6422 22.8188 22.7318 22.4848 22.9018 22.1904C23.0719 21.896 23.3164 21.6515 23.6108 21.4815L29.0193 18.3405C30.0368 17.8131 30.541 18.4381 30.541 19.2187V22.0251Z" fill="url(#paint3_linear_3041_151414)"/>
<path d="M2.64385 7.06369C2.32292 7.24815 2.0563 7.51399 1.87091 7.83438C1.68551 8.15478 1.58789 8.5184 1.58789 8.88857C1.58789 9.25874 1.68551 9.62236 1.87091 9.94275C2.0563 10.2631 2.32292 10.529 2.64385 10.7134L7.41339 13.4711C8.05001 13.8354 8.77078 14.0271 9.50428 14.0271C10.2378 14.0271 10.9585 13.8354 11.5952 13.4711L22.9556 7.17056C23.1156 7.07819 23.2971 7.02956 23.4818 7.02956C23.6666 7.02956 23.8481 7.07819 24.008 7.17056L26.3591 8.44135C26.4128 8.47174 26.4574 8.51582 26.4884 8.56908C26.5194 8.62234 26.5358 8.68288 26.5358 8.74453C26.5358 8.80617 26.5194 8.86671 26.4884 8.91998C26.4574 8.97324 26.4128 9.01731 26.3591 9.04771L25.0976 9.77255C25.0976 9.77255 19.5219 12.6858 16.3949 14.4724C14.9173 15.3134 13.6071 16.5633 13.1424 18.1616L16.9083 19.9621C17.2955 18.6972 18.1594 17.6325 19.3175 16.9931L28.4523 11.9657L30.5432 10.7483C30.8636 10.5637 31.1297 10.2979 31.3147 9.97775C31.4997 9.6576 31.5972 9.29435 31.5972 8.92458C31.5972 8.5548 31.4997 8.19155 31.3147 7.8714C31.1297 7.55124 30.8636 7.28548 30.5432 7.10086L25.1789 4.09231C24.5411 3.7254 23.8181 3.53229 23.0822 3.53229C22.3464 3.53229 21.6234 3.7254 20.9856 4.09231L10.3569 9.88871C10.1964 9.98217 10.0141 10.0314 9.82836 10.0314C9.64267 10.0314 9.46029 9.98217 9.29983 9.88871L7.56208 8.82932C7.50845 8.79893 7.46384 8.75486 7.4328 8.70159C7.40177 8.64833 7.38542 8.58779 7.38542 8.52615C7.38542 8.4645 7.40177 8.40396 7.4328 8.3507C7.46384 8.29744 7.50845 8.25336 7.56208 8.22297L9.09307 7.3448L17.8376 2.39637H17.8539C18.6653 1.98667 19.5447 1.72844 20.4489 1.63436C20.4735 1.63161 20.4967 1.62134 20.5154 1.60495C20.534 1.58856 20.5471 1.56683 20.5529 1.54273C20.5588 1.51862 20.557 1.4933 20.548 1.47021C20.5389 1.44712 20.523 1.42738 20.5023 1.41366L20.0656 1.13487C17.8283 -0.303189 15.4656 -0.379855 13.1564 0.935078L4.17717 6.18087L2.64385 7.06369Z" fill="url(#paint4_linear_3041_151414)"/>
<path d="M2.64385 7.06369C2.32292 7.24815 2.0563 7.51399 1.87091 7.83438C1.68551 8.15478 1.58789 8.5184 1.58789 8.88857C1.58789 9.25874 1.68551 9.62236 1.87091 9.94275C2.0563 10.2631 2.32292 10.529 2.64385 10.7134L7.41339 13.4711C8.05001 13.8354 8.77078 14.0271 9.50428 14.0271C10.2378 14.0271 10.9585 13.8354 11.5952 13.4711L22.9556 7.17056C23.1156 7.07819 23.2971 7.02956 23.4818 7.02956C23.6666 7.02956 23.8481 7.07819 24.008 7.17056L26.3591 8.44135C26.4128 8.47174 26.4574 8.51582 26.4884 8.56908C26.5194 8.62234 26.5358 8.68288 26.5358 8.74453C26.5358 8.80617 26.5194 8.86671 26.4884 8.91998C26.4574 8.97324 26.4128 9.01731 26.3591 9.04771L25.0976 9.77255C25.0976 9.77255 19.5219 12.6858 16.3949 14.4724C14.9173 15.3134 13.6071 16.5633 13.1424 18.1616L16.9083 19.9621C17.2955 18.6972 18.1594 17.6325 19.3175 16.9931L28.4523 11.9657L30.5432 10.7483C30.8636 10.5637 31.1297 10.2979 31.3147 9.97775C31.4997 9.6576 31.5972 9.29435 31.5972 8.92458C31.5972 8.5548 31.4997 8.19155 31.3147 7.8714C31.1297 7.55124 30.8636 7.28548 30.5432 7.10086L25.1789 4.09231C24.5411 3.7254 23.8181 3.53229 23.0822 3.53229C22.3464 3.53229 21.6234 3.7254 20.9856 4.09231L10.3569 9.88871C10.1964 9.98217 10.0141 10.0314 9.82836 10.0314C9.64267 10.0314 9.46029 9.98217 9.29983 9.88871L7.56208 8.82932C7.50845 8.79893 7.46384 8.75486 7.4328 8.70159C7.40177 8.64833 7.38542 8.58779 7.38542 8.52615C7.38542 8.4645 7.40177 8.40396 7.4328 8.3507C7.46384 8.29744 7.50845 8.25336 7.56208 8.22297L9.09307 7.3448L17.8376 2.39637H17.8539C18.6653 1.98667 19.5447 1.72844 20.4489 1.63436C20.4735 1.63161 20.4967 1.62134 20.5154 1.60495C20.534 1.58856 20.5471 1.56683 20.5529 1.54273C20.5588 1.51862 20.557 1.4933 20.548 1.47021C20.5389 1.44712 20.523 1.42738 20.5023 1.41366L20.0656 1.13487C17.8283 -0.303189 15.4656 -0.379855 13.1564 0.935078L4.17717 6.18087L2.64385 7.06369Z" fill="url(#paint5_radial_3041_151414)"/>
</g>
<defs>
<linearGradient id="paint0_linear_3041_151414" x1="4.20965" y1="32.8931" x2="12.9914" y2="17.6854" gradientUnits="userSpaceOnUse">
<stop stop-color="#FF1D25"/>
<stop offset="0.45" stop-color="#FF1F25"/>
<stop offset="0.64" stop-color="#FD2625"/>
<stop offset="0.78" stop-color="#FA3325"/>
<stop offset="0.9" stop-color="#F64424"/>
<stop offset="1" stop-color="#F15A24"/>
</linearGradient>
<radialGradient id="paint1_radial_3041_151414" cx="0" cy="0" r="1" gradientUnits="userSpaceOnUse" gradientTransform="translate(15.0776 19.077) scale(6.89527)">
<stop offset="0.1" stop-color="#F15A24"/>
<stop offset="1" stop-color="#F15A24" stop-opacity="0"/>
</radialGradient>
<linearGradient id="paint2_linear_3041_151414" x1="-0.00696858" y1="25.6911" x2="16.9199" y2="25.6911" gradientUnits="userSpaceOnUse">
<stop stop-color="#ED1C24"/>
<stop offset="1" stop-color="#FF1D25" stop-opacity="0"/>
</linearGradient>
<linearGradient id="paint3_linear_3041_151414" x1="18.4951" y1="39.2261" x2="33.8329" y2="12.658" gradientUnits="userSpaceOnUse">
<stop stop-color="#0549CF"/>
<stop offset="0.18" stop-color="#0B52D3"/>
<stop offset="0.47" stop-color="#1A6CDD"/>
<stop offset="0.84" stop-color="#3395ED"/>
<stop offset="1" stop-color="#3FA9F5"/>
</linearGradient>
<linearGradient id="paint4_linear_3041_151414" x1="16.597" y1="-0.00349613" x2="16.597" y2="19.9551" gradientUnits="userSpaceOnUse">
<stop stop-color="#FFD800"/>
<stop offset="0.05" stop-color="#FFC907"/>
<stop offset="0.15" stop-color="#FFB111"/>
<stop offset="0.25" stop-color="#FFA018"/>
<stop offset="0.36" stop-color="#FF961D"/>
<stop offset="0.5" stop-color="#FF931E"/>
<stop offset="0.65" stop-color="#FE901E"/>
<stop offset="0.77" stop-color="#FC861F"/>
<stop offset="0.88" stop-color="#F87521"/>
<stop offset="0.99" stop-color="#F25D24"/>
<stop offset="1" stop-color="#F15A24"/>
</linearGradient>
<radialGradient id="paint5_radial_3041_151414" cx="0" cy="0" r="1" gradientUnits="userSpaceOnUse" gradientTransform="translate(6407.67 4623.03) scale(833.958 554.747)">
<stop offset="0.1" stop-color="#F15A24"/>
<stop offset="1" stop-color="#F15A24" stop-opacity="0"/>
</radialGradient>
<clipPath id="clip0_3041_151414">
<rect width="127" height="40" fill="white"/>
</clipPath>
</defs>
</svg>
