<svg width="412" height="412" viewBox="0 0 412 412" fill="none" xmlns="http://www.w3.org/2000/svg">
<g clip-path="url(#clip0_72_1054)">
<path d="M163.606 205.538V248.865C163.603 249.101 163.539 249.333 163.419 249.538C163.3 249.742 163.129 249.912 162.924 250.03C162.719 250.148 162.486 250.211 162.249 250.212C162.013 250.213 161.78 250.153 161.574 250.036L70.5926 198.867C69.8759 198.473 69.2769 197.896 68.8568 197.194C68.4366 196.492 68.2105 195.692 68.2015 194.874V157.908C67.9049 152.902 66.6023 148.008 64.3715 143.518C62.1407 139.028 59.0275 135.033 55.2179 131.773C48.0446 126.226 34.535 118.383 33.6981 117.785C32.1678 116.805 31.044 117.618 31.044 119.076L30.8766 170.485V293.411C30.8718 299.563 32.4896 305.607 35.5668 310.935C38.644 316.262 43.0717 320.684 48.4033 323.753L66.2647 334.059C66.4745 334.175 66.7106 334.234 66.9501 334.231C67.1896 334.229 67.4243 334.164 67.6314 334.044C67.8385 333.923 68.0108 333.751 68.1317 333.544C68.2526 333.338 68.3178 333.103 68.3211 332.864V247.191C68.3196 246.952 68.3809 246.717 68.4988 246.509C68.6167 246.302 68.7871 246.129 68.9929 246.008C69.1987 245.887 69.4328 245.822 69.6715 245.82C69.9103 245.817 70.1455 245.878 70.3535 245.995L161.334 297.165C162.054 297.555 162.656 298.131 163.077 298.834C163.497 299.536 163.721 300.339 163.725 301.158V367.343C163.724 374.257 165.542 381.049 168.996 387.039C172.45 393.028 177.419 398.003 183.404 401.464L200.883 411.578C201.117 411.737 201.39 411.829 201.672 411.842C201.954 411.855 202.235 411.791 202.482 411.654C202.73 411.518 202.935 411.316 203.075 411.071C203.214 410.825 203.283 410.546 203.274 410.263V219.55C203.27 214.826 203.93 210.126 205.235 205.586L166.475 187.055C164.641 193.047 163.675 199.272 163.606 205.538V205.538Z" fill="url(#paint0_linear_72_1054)"/>
<path d="M163.606 205.538V248.865C163.603 249.101 163.539 249.333 163.419 249.538C163.3 249.742 163.129 249.912 162.924 250.03C162.719 250.148 162.486 250.211 162.249 250.212C162.013 250.213 161.78 250.153 161.574 250.036L70.5926 198.867C69.8759 198.473 69.2769 197.896 68.8568 197.194C68.4366 196.492 68.2105 195.692 68.2015 194.874V157.908C67.9049 152.902 66.6023 148.008 64.3715 143.518C62.1407 139.028 59.0275 135.033 55.2179 131.773C48.0446 126.226 34.535 118.383 33.6981 117.785C32.1678 116.805 31.044 117.618 31.044 119.076L30.8766 170.485V293.411C30.8718 299.563 32.4896 305.607 35.5668 310.935C38.644 316.262 43.0717 320.684 48.4033 323.753L66.2647 334.059C66.4745 334.175 66.7106 334.234 66.9501 334.231C67.1896 334.229 67.4243 334.164 67.6314 334.044C67.8385 333.923 68.0108 333.751 68.1317 333.544C68.2526 333.338 68.3178 333.103 68.3211 332.864V247.191C68.3196 246.952 68.3809 246.717 68.4988 246.509C68.6167 246.302 68.7871 246.129 68.9929 246.008C69.1987 245.887 69.4328 245.822 69.6715 245.82C69.9103 245.817 70.1455 245.878 70.3535 245.995L161.334 297.165C162.054 297.555 162.656 298.131 163.077 298.834C163.497 299.536 163.721 300.339 163.725 301.158V367.343C163.724 374.257 165.542 381.049 168.996 387.039C172.45 393.028 177.419 398.003 183.404 401.464L200.883 411.578C201.117 411.737 201.39 411.829 201.672 411.842C201.954 411.855 202.235 411.791 202.482 411.654C202.73 411.518 202.935 411.316 203.075 411.071C203.214 410.825 203.283 410.546 203.274 410.263V219.55C203.27 214.826 203.93 210.126 205.235 205.586L166.475 187.055C164.641 193.047 163.675 199.272 163.606 205.538V205.538Z" fill="url(#paint1_radial_72_1054)"/>
<path d="M163.606 205.538V248.865C163.603 249.101 163.539 249.333 163.419 249.538C163.3 249.742 163.129 249.912 162.924 250.03C162.719 250.148 162.486 250.211 162.249 250.212C162.013 250.213 161.78 250.153 161.574 250.036L70.5926 198.867C69.8759 198.473 69.2769 197.896 68.8568 197.194C68.4366 196.492 68.2105 195.692 68.2015 194.874V157.908C67.9049 152.902 66.6023 148.008 64.3715 143.518C62.1407 139.028 59.0275 135.033 55.2179 131.773C48.0446 126.226 34.535 118.383 33.6981 117.785C32.1678 116.805 31.044 117.618 31.044 119.076L30.8766 170.485V293.411C30.8718 299.563 32.4896 305.607 35.5668 310.935C38.644 316.262 43.0717 320.684 48.4033 323.753L66.2647 334.059C66.4745 334.175 66.7106 334.234 66.9501 334.231C67.1896 334.229 67.4243 334.164 67.6314 334.044C67.8385 333.923 68.0108 333.751 68.1317 333.544C68.2526 333.338 68.3178 333.103 68.3211 332.864V247.191C68.3196 246.952 68.3809 246.717 68.4988 246.509C68.6167 246.302 68.7871 246.129 68.9929 246.008C69.1987 245.887 69.4328 245.822 69.6715 245.82C69.9103 245.817 70.1455 245.878 70.3535 245.995L161.334 297.165C162.054 297.555 162.656 298.131 163.077 298.834C163.497 299.536 163.721 300.339 163.725 301.158V367.343C163.724 374.257 165.542 381.049 168.996 387.039C172.45 393.028 177.419 398.003 183.404 401.464L200.883 411.578C201.117 411.737 201.39 411.829 201.672 411.842C201.954 411.855 202.235 411.791 202.482 411.654C202.73 411.518 202.935 411.316 203.075 411.071C203.214 410.825 203.283 410.546 203.274 410.263V219.55C203.27 214.826 203.93 210.126 205.235 205.586L166.475 187.055C164.641 193.047 163.675 199.272 163.606 205.538V205.538Z" fill="url(#paint2_linear_72_1054)"/>
<path d="M385.859 144.183C385.859 134.308 372.851 116.255 345.21 132.921L243.469 191.837C237.256 195.259 232.103 200.323 228.573 206.475C225.044 212.628 223.273 219.633 223.456 226.723V404.19C223.453 404.493 223.531 404.792 223.681 405.056C223.831 405.32 224.048 405.54 224.31 405.692C224.572 405.845 224.87 405.926 225.174 405.927C225.477 405.928 225.776 405.848 226.038 405.696L248.73 392.593C253.379 389.914 257.24 386.057 259.923 381.41C262.605 376.762 264.015 371.49 264.009 366.124V320.932L345.306 273.804V333.748C345.31 334.027 345.386 334.3 345.526 334.541C345.666 334.782 345.865 334.983 346.105 335.125C346.346 335.267 346.618 335.344 346.897 335.35C347.175 335.356 347.451 335.29 347.697 335.159L370.819 321.458C375.383 318.751 379.163 314.902 381.788 310.29C384.412 305.678 385.79 300.463 385.787 295.156L385.859 144.183ZM345.21 226.843L263.913 273.971V238.511C263.914 235.012 264.836 231.574 266.587 228.544C268.337 225.514 270.854 222.997 273.884 221.248L329.549 188.92C340.022 183.492 345.21 189.924 345.21 197.959V226.843Z" fill="url(#paint3_linear_72_1054)"/>
<path d="M58.0877 72.8569C54.7845 74.7554 52.0405 77.4915 50.1323 80.789C48.2242 84.0866 47.2195 87.8291 47.2195 91.6389C47.2195 95.4488 48.2242 99.1912 50.1323 102.489C52.0405 105.786 54.7845 108.522 58.0877 110.421L107.177 138.803C113.729 142.553 121.147 144.525 128.697 144.525C136.246 144.525 143.664 142.553 150.216 138.803L267.14 73.9568C268.787 73.0061 270.655 72.5057 272.556 72.5057C274.458 72.5057 276.326 73.0061 277.972 73.9568L302.17 87.0361C302.722 87.3489 303.181 87.8025 303.5 88.3507C303.82 88.8989 303.988 89.522 303.988 90.1564C303.988 90.7909 303.82 91.414 303.5 91.9622C303.181 92.5104 302.722 92.964 302.17 93.2768L289.186 100.737C289.186 100.737 231.8 130.721 199.616 149.109C184.409 157.764 170.923 170.629 166.141 187.079L204.9 205.61C208.885 192.591 217.777 181.633 229.696 175.052L323.714 123.309L345.233 110.78C348.531 108.879 351.27 106.144 353.174 102.849C355.078 99.5539 356.081 95.8153 356.081 92.0095C356.081 88.2038 355.078 84.4651 353.174 81.17C351.27 77.8749 348.531 75.1396 345.233 73.2395L290.023 42.2749C283.458 38.4986 276.017 36.5111 268.444 36.5111C260.87 36.5111 253.429 38.4986 246.864 42.2749L137.472 101.933C135.82 102.894 133.943 103.401 132.032 103.401C130.121 103.401 128.244 102.894 126.592 101.933L108.707 91.0292C108.155 90.7164 107.696 90.2627 107.376 89.7146C107.057 89.1664 106.889 88.5433 106.889 87.9088C106.889 87.2744 107.057 86.6513 107.376 86.1031C107.696 85.5549 108.155 85.1013 108.707 84.7884L124.464 75.7501L214.465 24.8199H214.632C222.984 20.6032 232.035 17.9454 241.341 16.9772C241.594 16.9489 241.833 16.8432 242.025 16.6745C242.216 16.5057 242.351 16.2821 242.411 16.034C242.471 15.7859 242.454 15.5254 242.36 15.2877C242.267 15.0501 242.103 14.8469 241.891 14.7057L237.395 11.8364C214.369 -2.96448 190.052 -3.75354 166.284 9.78002L73.8689 63.7708L58.0877 72.8569Z" fill="url(#paint4_linear_72_1054)"/>
<path d="M58.0877 72.8569C54.7845 74.7554 52.0405 77.4915 50.1323 80.789C48.2242 84.0866 47.2195 87.8291 47.2195 91.6389C47.2195 95.4488 48.2242 99.1912 50.1323 102.489C52.0405 105.786 54.7845 108.522 58.0877 110.421L107.177 138.803C113.729 142.553 121.147 144.525 128.697 144.525C136.246 144.525 143.664 142.553 150.216 138.803L267.14 73.9568C268.787 73.0061 270.655 72.5057 272.556 72.5057C274.458 72.5057 276.326 73.0061 277.972 73.9568L302.17 87.0361C302.722 87.3489 303.181 87.8025 303.5 88.3507C303.82 88.8989 303.988 89.522 303.988 90.1564C303.988 90.7909 303.82 91.414 303.5 91.9622C303.181 92.5104 302.722 92.964 302.17 93.2768L289.186 100.737C289.186 100.737 231.8 130.721 199.616 149.109C184.409 157.764 170.923 170.629 166.141 187.079L204.9 205.61C208.885 192.591 217.777 181.633 229.696 175.052L323.714 123.309L345.233 110.78C348.531 108.879 351.27 106.144 353.174 102.849C355.078 99.5539 356.081 95.8153 356.081 92.0095C356.081 88.2038 355.078 84.4651 353.174 81.17C351.27 77.8749 348.531 75.1396 345.233 73.2395L290.023 42.2749C283.458 38.4986 276.017 36.5111 268.444 36.5111C260.87 36.5111 253.429 38.4986 246.864 42.2749L137.472 101.933C135.82 102.894 133.943 103.401 132.032 103.401C130.121 103.401 128.244 102.894 126.592 101.933L108.707 91.0292C108.155 90.7164 107.696 90.2627 107.376 89.7146C107.057 89.1664 106.889 88.5433 106.889 87.9088C106.889 87.2744 107.057 86.6513 107.376 86.1031C107.696 85.5549 108.155 85.1013 108.707 84.7884L124.464 75.7501L214.465 24.8199H214.632C222.984 20.6032 232.035 17.9454 241.341 16.9772C241.594 16.9489 241.833 16.8432 242.025 16.6745C242.216 16.5057 242.351 16.2821 242.411 16.034C242.471 15.7859 242.454 15.5254 242.36 15.2877C242.267 15.0501 242.103 14.8469 241.891 14.7057L237.395 11.8364C214.369 -2.96448 190.052 -3.75354 166.284 9.78002L73.8689 63.7708L58.0877 72.8569Z" fill="url(#paint5_radial_72_1054)"/>
</g>
<defs>
<linearGradient id="paint0_linear_72_1054" x1="74.2031" y1="338.698" x2="164.586" y2="182.177" gradientUnits="userSpaceOnUse">
<stop stop-color="#FF1D25"/>
<stop offset="0.45" stop-color="#FF1F25"/>
<stop offset="0.64" stop-color="#FD2625"/>
<stop offset="0.78" stop-color="#FA3325"/>
<stop offset="0.9" stop-color="#F64424"/>
<stop offset="1" stop-color="#F15A24"/>
</linearGradient>
<radialGradient id="paint1_radial_72_1054" cx="0" cy="0" r="1" gradientUnits="userSpaceOnUse" gradientTransform="translate(186.058 196.5) scale(70.9675 70.9675)">
<stop offset="0.1" stop-color="#F15A24"/>
<stop offset="1" stop-color="#F15A24" stop-opacity="0"/>
</radialGradient>
<linearGradient id="paint2_linear_72_1054" x1="30.8049" y1="264.574" x2="205.02" y2="264.574" gradientUnits="userSpaceOnUse">
<stop stop-color="#ED1C24"/>
<stop offset="1" stop-color="#FF1D25" stop-opacity="0"/>
</linearGradient>
<linearGradient id="paint3_linear_72_1054" x1="221.232" y1="403.879" x2="379.092" y2="130.434" gradientUnits="userSpaceOnUse">
<stop stop-color="#0549CF"/>
<stop offset="0.18" stop-color="#0B52D3"/>
<stop offset="0.47" stop-color="#1A6CDD"/>
<stop offset="0.84" stop-color="#3395ED"/>
<stop offset="1" stop-color="#3FA9F5"/>
</linearGradient>
<linearGradient id="paint4_linear_72_1054" x1="201.696" y1="0.120023" x2="201.696" y2="205.538" gradientUnits="userSpaceOnUse">
<stop stop-color="#FFD800"/>
<stop offset="0.05" stop-color="#FFC907"/>
<stop offset="0.15" stop-color="#FFB111"/>
<stop offset="0.25" stop-color="#FFA018"/>
<stop offset="0.36" stop-color="#FF961D"/>
<stop offset="0.5" stop-color="#FF931E"/>
<stop offset="0.65" stop-color="#FE901E"/>
<stop offset="0.77" stop-color="#FC861F"/>
<stop offset="0.88" stop-color="#F87521"/>
<stop offset="0.99" stop-color="#F25D24"/>
<stop offset="1" stop-color="#F15A24"/>
</linearGradient>
<radialGradient id="paint5_radial_72_1054" cx="0" cy="0" r="1" gradientUnits="userSpaceOnUse" gradientTransform="translate(65979.9 47581.3) scale(8583.26 5709.57)">
<stop offset="0.1" stop-color="#F15A24"/>
<stop offset="1" stop-color="#F15A24" stop-opacity="0"/>
</radialGradient>
<clipPath id="clip0_72_1054">
<rect width="411.688" height="411.688" fill="white" transform="translate(0 0.156006)"/>
</clipPath>
</defs>
</svg>
