<svg xmlns="http://www.w3.org/2000/svg" viewBox="0 0 64 64" id="QuestionAndAnswer">
  <path fill="#595bd4" d="M30.73,12H9.27A5.2707,5.2707,0,0,0,4,17.27V32.73A5.2707,5.2707,0,0,0,9.27,38H16v7a1.0013,1.0013,0,0,0,.67.94A.96.96,0,0,0,17,46a.9705.9705,0,0,0,.78-.38L23.88,38h6.85A5.2707,5.2707,0,0,0,36,32.73V17.27A5.2707,5.2707,0,0,0,30.73,12ZM20,33a1,1,0,1,1,1-1A1.0029,1.0029,0,0,1,20,33Zm1.92-6.38A1.4818,1.4818,0,0,0,21,28a1,1,0,0,1-2,0,3.5015,3.5015,0,0,1,2.15-3.23,3.0018,3.0018,0,0,0-.43-5.69A3.0045,3.0045,0,0,0,17,22a1,1,0,0,1-2,0,5.004,5.004,0,1,1,6.92,4.62Z" class="color3b3c3d svgShape"></path>
  <path fill="#595bd4" d="M49,56a1.0013,1.0013,0,0,1-.7808-.375L42.12,48h-8.852A5.2736,5.2736,0,0,1,28,42.7324V41a1,1,0,0,1,2,0v1.7324A3.2713,3.2713,0,0,0,33.2676,46H42.6a.999.999,0,0,1,.7808.375L48,52.1494V47a1,1,0,0,1,1-1h5.7324A3.2713,3.2713,0,0,0,58,42.7324V27.2676a3.2715,3.2715,0,0,0-3.062-3.2617C54.8745,24.002,54.8037,24,54.7324,24l-4.7309.0078L39,24A1,1,0,0,1,39,22h.0005l11,.0078L54.731,22c.11,0,.2177.0039.3242.01A5.2757,5.2757,0,0,1,60,27.2676V42.7324A5.2736,5.2736,0,0,1,54.7324,48H50v7a1.0007,1.0007,0,0,1-1,1Z" class="color3b3c3d svgShape"></path>
  <path fill="#595bd4" d="M55 30H39a1 1 0 0 1 0-2H55a1 1 0 0 1 0 2zM55 34H39a1 1 0 0 1 0-2H55a1 1 0 0 1 0 2zM55 38H39a1 1 0 0 1 0-2H55a1 1 0 0 1 0 2zM44 42H39a1 1 0 0 1 0-2h5a1 1 0 0 1 0 2zM49.71 10.29l-2.5-2.5a1.008 1.008 0 0 0-1.42 0l-2.5 2.5a1.008 1.008 0 0 0 0 1.42l2.5 2.5a1.0141 1.0141 0 0 0 1.42 0l2.5-2.5A1.008 1.008 0 0 0 49.71 10.29zm-3.21 1.8L45.41 11 46.5 9.91 47.59 11z" class="color3b3c3d svgShape"></path>
  <circle cx="53" cy="17" r="1" fill="#595bd4" class="color3b3c3d svgShape"></circle>
  <circle cx="39" cy="5" r="1" fill="#595bd4" class="color3b3c3d svgShape"></circle>
  <path fill="#595bd4" d="M14,53a3,3,0,1,0,3,3A3.0088,3.0088,0,0,0,14,53Zm0,4a1,1,0,1,1,1-1A1.0029,1.0029,0,0,1,14,57Z" class="color3b3c3d svgShape"></path>
  <circle cx="27" cy="51" r="1" fill="#595bd4" class="color3b3c3d svgShape"></circle>
  <circle cx="7" cy="47" r="1" fill="#595bd4" class="color3b3c3d svgShape"></circle>
</svg>
